<svg preserveAspectRatio="xMidYMid meet" width="100%" height="100%" overflow="visible" style="display: block;" viewBox="0 0 75.6169 96.5" fill="none" xmlns="http://www.w3.org/2000/svg">
<g id="Group 65">
<path id="Ellipse 57" d="M9.05328 47.1428C16.0072 31.2523 30.8471 11.7464 37.2178 3.71952C38.7699 1.76386 41.6867 1.77227 43.2388 3.72798C45.1553 6.14291 47.8363 9.59428 50.8378 13.6723M7.03125 71.8918C11.5739 85.8843 24.7181 96 40.2249 96C59.4953 96 75.1169 80.3783 75.1169 61.108C75.1169 54.3161 70.7825 44.7207 65.169 35.1419" stroke="var(--stroke-0, #1D1D1F)" stroke-linecap="round" stroke-linejoin="round"/>
<path id="Ellipse 58" d="M27.4099 49.5025C23.7318 52.953 21.4341 57.8576 21.4341 63.2988C21.4341 73.7444 29.9019 82.2123 40.3475 82.2123C50.7931 82.2123 59.261 73.7444 59.261 63.2988C59.261 52.8532 50.7931 44.3854 40.3475 44.3854C38.2878 44.3854 36.305 44.7146 34.4488 45.3234" stroke="var(--stroke-0, #1D1D1F)" stroke-linecap="round" stroke-linejoin="round"/>
<path id="Vector" d="M7.03112 50.8815L7.46322 52.7098C8.16832 55.6936 10.0927 58.026 12.5541 58.8807L14.0622 59.4045L12.5541 59.9283C10.0927 60.7831 8.16865 63.1155 7.46355 66.0993L7.03145 67.9276L6.59936 66.0993C5.89425 63.1155 3.97024 60.7831 1.50885 59.9283L0 59.4049L1.50819 58.8811C3.96958 58.0264 5.89359 55.6936 6.59902 52.7102L7.03112 50.8815Z" fill="var(--fill-0, #F85A0B)"/>
<path id="Vector_2" d="M58.6835 14.9031L59.1662 16.9458C59.954 20.2795 62.104 22.8854 64.854 23.8403L66.5391 24.4256L64.854 25.0108C62.104 25.9658 59.9544 28.5717 59.1666 31.9053L58.6838 33.948L58.2011 31.9053C57.4133 28.5717 55.2637 25.9658 52.5136 25.0108L50.8279 24.426L52.5129 23.8408C55.2629 22.8858 57.4125 20.2795 58.2007 16.9463L58.6835 14.9031Z" fill="var(--fill-0, #F85A0B)"/>
</g>
</svg>
