<svg preserveAspectRatio="none" width="100%" height="100%" overflow="visible" style="display: block;" viewBox="0 0 21 15" fill="none" xmlns="http://www.w3.org/2000/svg">
<path id="Vector" d="M7.49086 0.193197C7.75934 -0.0613127 8.1984 -0.0648145 8.47152 0.185375C8.74464 0.435564 8.7484 0.844704 8.47992 1.09921L2.36147 6.8992L20.3007 6.75611C20.6837 6.75305 20.9967 7.03981 21 7.39669C21.0033 7.75357 20.6955 8.04528 20.3125 8.04833L2.37334 8.19143L8.59744 13.893C8.87056 14.1432 8.87432 14.5523 8.60583 14.8068C8.33735 15.0613 7.89829 15.0648 7.62517 14.8146L0.20725 8.0195C0.0760932 7.89935 0.00159973 7.73558 2.54625e-05 7.5642C-0.00154873 7.39282 0.0699252 7.22788 0.198856 7.10566L7.49086 0.193197Z" fill="var(--fill-0, #1D1D1F)"/>
</svg>
