<svg width="100%" height="100%" overflow="visible" style="display: block;" viewBox="0 0 29.2701 24.4407" fill="none" xmlns="http://www.w3.org/2000/svg">
<path id="Vector" fill-rule="evenodd" clip-rule="evenodd" d="M14.0814 3.02759C11.8197 0.92943 5.94672 -1.7338 2.05155 2.9142C-1.84974 7.56952 0.542835 12.2523 3.20521 15.3645L7.43074 15.2683L8.86294 13.2597L8.89464 13.2182C9.2203 12.8167 9.83768 12.8199 10.1592 13.2247L10.1905 13.2664L11.7249 15.4654L14.9128 8.08237L14.9413 8.02278C15.2546 7.4255 16.1403 7.45073 16.4079 8.09138L19.1891 14.7532L20.3831 14.726C20.7675 14.7172 21.0862 15.0217 21.095 15.4061C21.1037 15.7905 20.7992 16.1092 20.4148 16.118L18.825 16.1542C18.4907 16.1618 18.1858 15.9637 18.057 15.6551L15.6493 9.88855L12.5907 16.9733C12.3385 17.5574 11.5429 17.6378 11.1788 17.116L9.51906 14.7374L8.39572 16.3133C8.24707 16.5217 8.00883 16.6478 7.7529 16.6537L4.47619 16.7283C5.04356 17.2902 5.57788 17.7649 6.01615 18.1356C7.50798 19.3975 10.803 21.9708 13.3503 23.9204C14.2898 24.6394 15.6003 24.6096 16.5103 23.8536C19.0016 21.7837 22.2738 19.0435 23.7083 17.7134C26.3618 15.2532 32.6393 8.49203 26.9758 2.32727C22.8725 -2.13912 17.0029 0.809884 14.8252 3.01126C14.6247 3.21388 14.2903 3.22142 14.0814 3.02759Z" fill="var(--fill-0, #1D1D1F)"/>
</svg>
