<svg width="100%" height="100%" overflow="visible" style="display: block;" viewBox="-8.232 -4.9455 120 120" fill="none" xmlns="http://www.w3.org/2000/svg">
<g id="Group 53">
<path id="Rectangle 129" d="M95.188 45.8655L85.27 22.1584C84.4174 20.1204 82.0741 19.1595 80.0361 20.0121L40.6078 36.5071C38.5698 37.3597 37.6089 39.703 38.4615 41.741L55.1842 81.7136C56.0368 83.7516 58.3801 84.7126 60.4181 83.86L99.8464 67.3649C101.884 66.5123 102.845 64.169 101.993 62.131L99.3623 55.8433" stroke="var(--stroke-0, #1D1D1F)" stroke-linecap="round" stroke-linejoin="round"/>
<path id="Rectangle 132" d="M29.3531 19.864C28.5005 17.826 29.4615 15.4827 31.4995 14.6301L45.6357 8.71613C47.6736 7.86353 50.0169 8.82448 50.8695 10.8625L56.8882 25.2489C57.7408 27.2868 56.7798 29.6301 54.7418 30.4827L40.6056 36.3967C38.5677 37.2493 36.2244 36.2883 35.3718 34.2504L29.3531 19.864Z" stroke="var(--stroke-0, #1D1D1F)" stroke-linecap="round" stroke-linejoin="round"/>
<path id="Vector 437" d="M98.6297 77.7885L60.2575 93.8417M0.500054 27.4384L16.9414 29.5439C21.1938 30.0885 24.8327 32.8604 26.4873 36.8154L48.2916 88.9344" stroke="var(--stroke-0, black)" stroke-linecap="round"/>
<ellipse id="Ellipse 53" cx="51.6622" cy="97.7578" rx="9.43994" ry="9.43995" transform="rotate(-22.7023 51.6622 97.7578)" stroke="var(--stroke-0, #1D1D1F)" stroke-linecap="round" stroke-linejoin="round"/>
<ellipse id="Ellipse 54" cx="51.6623" cy="97.7577" rx="4.71527" ry="4.71528" transform="rotate(-22.7023 51.6623 97.7577)" fill="var(--fill-0, #F85A0B)"/>
<path id="Vector" d="M6.12389 4.83396L6.4695 6.29632C7.03348 8.68293 8.57267 10.5485 10.5414 11.2322L11.7478 11.6511L10.5414 12.0701C8.57267 12.7538 7.03375 14.6193 6.46977 17.0059L6.12416 18.4683L5.77854 17.0059C5.21456 14.6193 3.67564 12.7538 1.70689 12.0701L0.50003 11.6514L1.70636 11.2325C3.67511 10.5488 5.21403 8.68293 5.77828 6.29664L6.12389 4.83396Z" fill="var(--fill-0, #F85A0B)"/>
</g>
</svg>
